PathFileType	4	(X/Y/Z)	C:/Users/beibeiliu/ov580/test_trc/User3\sequence.23_training_dense_right.trc
DataRate	CameraRate	NumFrames	NumMarkers	Units	OrigDataRate	OrigDataStartFrame	OrigNumFrames
120	120	14	19	mm	120	220	293
Frame#	Time	ThumbCMC			ThumbMCP			ThumbIP			ThumbTip			IndexMCP			IndexPIP			IndexTip			MiddleMCP			MiddlePIP			MiddleTip			RingMCP			RingPIP			RingTip			PinkyMCP			PinkyPIP			PinkyTip			BackHand1			BackHand2			BackHand3	
		X0	Y0	Z0	X1	Y1	Z1	X2	Y2	Z2	X3	Y3	Z3	X4	Y4	Z4	X5	Y5	Z5	X6	Y6	Z6	X7	Y7	Z7	X8	Y8	Z8	X9	Y9	Z9	X10	Y10	Z10	X11	Y11	Z11	X12	Y12	Z12	X13	Y13	Z13	X14	Y14	Z14	X15	Y15	Z15	X16	Y16	Z16	X17	Y17	Z17	X18	Y18	Z18	
219	1.825	181.663	8.71226	19.6541	161.473	22.367	-5.07905	128.506	18.1611	-12.8483	108.251	6.58908	-1.14664	122.833	-2.92564	-35.4552	99.0601	4.27364	-49.2661	72.9559	7.54	-58.2534	108.307	-22.3459	-30.328	81.0776	-18.9948	-41.3278	52.0851	-8.51517	-52.9063	101.168	-35.0707	-14.1887	81.5818	-35.225	-22.2286	56.6006	-26.5553	-32.8542	106.517	-45.9575	7.45508	86.0464	-48.7364	0.786606	63.4322	-42.2984	-13.7608	153.288	-48.3199	12.8821	173.71	-51.1427	30.7866	174.121	-26.0209	7.81433	
220	1.83333	189.931	8.07761	19.2856	174.305	24.7829	-9.10974	141.529	20.8681	-18.5677	119.603	11.5018	-7.0836	134.151	-2.94342	-38.2805	111.38	6.32355	-56.1749	92.1644	13.6583	-67.7864	117.334	-20.3389	-36.5235	95.4261	-13.5772	-48.238	69.2331	-1.0666	-62.5721	108.309	-32.3025	-18.2049	90.079	-25.8373	-30.0985	66.5696	-17.1274	-42.5438	109.73	-40.8857	0.671304	93.0679	-38.9957	-5.95813	70.9315	-35.6543	-16.5716	156.16	-46.3515	11.1682	176.727	-49.2557	30.7233	184.206	-23.2051	8.4917	
221	1.84167	200.552	8.7611	15.0604	182.821	21.324	-11.9502	152.682	23.1682	-23.3203	128.202	10.2202	-12.9713	147.543	0.0515964	-48.5001	127.663	8.83787	-66.7407	109.165	17.2054	-80.9571	127.84	-21.0864	-42.8038	107.45	-10.2037	-60.4835	81.9376	-1.02666	-72.3047	122.766	-30.3037	-23.5887	99.6748	-25.1487	-37.79	78.8671	-14.2366	-51.9769	117.697	-37.967	-4.34853	95.3419	-37.7155	-14.7917	80.9447	-31.6363	-26.7496	161.605	-46.9396	8.19373	183.006	-48.345	31.4147	188.064	-24.1051	2.27722	
222	1.85	205.96	7.28084	12.35	193.791	22.8346	-14.7803	165.351	21.1539	-26.5958	138.256	8.876	-19.4665	158.627	-5.22084	-53.1359	143.777	2.14539	-70.673	127.877	12.6959	-90.3121	141.529	-23.3588	-46.9047	122.241	-11.7016	-69.5717	97.8108	-2.62043	-84.6922	132.054	-32.3362	-29.2875	110.414	-26.8015	-48.1303	93.8492	-16.522	-63.4262	124.42	-42.8907	-8.59079	109.971	-36.712	-22.318	89.5359	-34.7315	-33.996	172.367	-48.2878	5.20033	189.584	-48.8184	28.8251	198.968	-27.5427	2.66376	
223	1.85833	211.947	3.65827	9.60733	204.367	16.5282	-16.1928	173.751	15.5899	-35.6264	149.626	8.15439	-27.9073	171.83	-9.51206	-58.6614	157.091	-4.6094	-79.9147	146.192	2.9996	-98.0865	155.725	-27.2422	-53.4702	137.349	-19.0383	-77.8246	117.705	-9.75091	-96.8216	141.981	-35.1667	-40.8605	125.108	-31.3944	-56.8059	105.447	-22.6878	-76.8346	132.182	-44.4199	-20.0251	118.159	-39.4961	-34.7772	105.977	-35.9293	-48.302	176.581	-52.2566	2.13983	191.142	-52.132	24.5655	205.372	-28.356	-1.40132	
224	1.86667	217.33	-2.69049	9.22448	213.132	8.88226	-22.9933	189.652	8.98568	-37.1279	158.597	-2.33938	-34.1372	190.025	-17.7739	-62.9471	181.906	-12.7605	-87.722	165.256	-9.09593	-109.914	169.951	-34.5842	-63.7829	153.742	-30.6006	-87.3344	138.531	-22.6613	-108.721	154.214	-43.3931	-50.2771	142.822	-38.0327	-70.0112	125.478	-32.771	-91.1992	147.388	-48.5699	-24.1417	133.158	-45.5357	-47.1356	116.409	-42.6866	-63.8739	186.833	-55.1211	-2.89662	197.552	-57.5743	22.0242	215.405	-35.762	0.249596	
225	1.875	228.813	-7.72211	6.51698	224.836	-0.297831	-25.307	202.53	-1.74383	-44.3161	175.411	-9.60601	-43.4294	209.338	-31.4685	-67.9427	203.967	-28.7838	-93.8093	193.702	-24.4385	-120.071	191.234	-47.6302	-68.9168	176.377	-47.5461	-95.5571	165.778	-41.0677	-122.072	173.644	-54.7134	-53.0626	163.299	-53.2823	-80.1034	152.013	-46.4129	-104.329	161.942	-58.4604	-37.0549	153.812	-56.8549	-58.2933	141.947	-56.1027	-76.4884	193.576	-62.6837	-8.54119	200.857	-61.1993	20.655	223.216	-43.8614	-0.306072	
226	1.88333	234.779	-11.2338	4.41247	236.007	-2.31445	-26.1442	214.503	-9.65706	-49.7004	188.296	-18.5475	-48.927	225.938	-43.0166	-67.0528	227.844	-40.2622	-96.6158	217.276	-41.386	-119.929	206.991	-57.7446	-71.2695	201.856	-57.4758	-98.7659	192.175	-57.6942	-125.416	189.499	-64.5906	-61.9073	186.394	-62.1639	-83.6818	173.775	-64.9639	-108.08	179.124	-65.7492	-44.1782	168.162	-70.2929	-63.1058	163.164	-69.174	-88.6497	205.2	-64.6255	-10.9574	205.28	-66.0836	20.2923	232.801	-46.7218	1.68973	
227	1.89167	236.96	-13.2718	8.39468	242.981	-6.99201	-28.9657	225.459	-13.3331	-51.1515	197.795	-27.3856	-53.4716	242.197	-46.3673	-62.3984	241.563	-52.4271	-91.5561	237.555	-54.4713	-115.521	221.101	-68.0466	-70.3589	221.596	-68.504	-97.8718	213.136	-71.7615	-126.085	206.935	-71.6585	-62.4498	203.815	-74.173	-82.2618	198.827	-75.7387	-108.359	191.05	-73.4021	-41.1481	189.399	-77.0466	-64.2844	187.009	-82.2405	-85.9486	213.563	-73.5086	-8.97766	214.859	-65.7393	22.9106	239.078	-47.3076	2.57558	
228	1.9	240.98	-12.934	8.50011	248.02	-3.76222	-27.4554	230.214	-18.1661	-50.1389	209.748	-30.0113	-51.3088	252.331	-52.1709	-63.4353	256.13	-55.4733	-91.4711	254.264	-59.3354	-113.896	238.128	-71.9214	-66.9387	240.44	-73.6196	-93.7704	236.075	-78.7015	-122.651	223.682	-76.9676	-59.7894	224.885	-81.0084	-81.6257	220.43	-88.4966	-109.672	207.171	-79.4854	-42.6617	207.713	-85.236	-65.6869	206.249	-92.0797	-86.1032	225.574	-73.6907	-6.28479	224.189	-67.3807	25.3271	245.783	-48.8877	7.86945	
229	1.90833	247.017	-7.09899	3.92019	249.485	0.420147	-27.7428	233.283	-18.1335	-50.3786	212.075	-35.0933	-51.3865	259.95	-47.3699	-60.07	265.839	-51.0655	-84.6123	269.425	-55.6519	-113.787	249.031	-68.8215	-62.054	253.114	-72.1224	-90.0944	255.854	-76.338	-121.622	236.172	-74.4529	-54.5361	237.844	-84.1903	-81.3868	239.798	-89.1418	-108.257	216.212	-83.3718	-40.2193	220.725	-87.3997	-59.1572	227.641	-93.3823	-82.6453	236.04	-70.7601	-2.71065	232.725	-65.4103	24.6656	255.965	-42.5042	4.59658	
230	1.91667	243.403	-2.09198	6.65067	244.796	5.24675	-25.8752	233.274	-13.1359	-51.9583	215.059	-32.7284	-52.3583	266.853	-40.0222	-59.2534	272.157	-43.4234	-83.5882	275.277	-51.3452	-112.135	260.496	-58.2207	-61.3719	264.429	-66.7886	-91.8287	267.529	-69.6044	-121.438	248.294	-71.0847	-57.3026	251.275	-78.268	-80.4427	252.438	-84.5338	-102.227	229.622	-81.8099	-42.6718	235.625	-83.1682	-62.847	240.83	-91.8335	-82.9928	242.224	-69.1285	-6.12584	238.204	-61.6561	27.0527	258.898	-36.2172	7.33524	
231	1.925	237.602	-1.83814	5.71536	238.268	7.01713	-26.3163	229.581	-9.27542	-50.1729	217.051	-35.341	-48.3428	269.355	-27.7867	-58.1528	273.026	-31.8452	-81.5655	279.321	-34.5866	-106.921	265.416	-51.3693	-60.3385	272.968	-52.0913	-90.1566	276.652	-54.2065	-116.483	254.969	-61.2343	-54.1598	260.686	-69.109	-80.3553	265.433	-72.25	-106.233	240.16	-74.936	-42.2255	246.002	-80.2289	-62.2375	251.358	-84.0728	-79.0692	247.722	-63.1426	-1.42952	242.157	-60.4282	27.874	257.319	-27.1485	9.09224	
232	1.93333	229.132	6.806	8.09738	229.546	14.3267	-26.5539	225.322	-1.86359	-52.3234	218.842	-31.7098	-49.802	267.11	-13.0355	-57.6329	274.02	-15.1829	-85.8292	279.216	-21.9483	-108.169	267.942	-38.8041	-61.484	275.502	-37.2446	-90.259	280.774	-39.9745	-115.564	260.589	-50.8851	-54.3567	267.591	-54.7147	-76.466	272.675	-61.109	-101.96	248.758	-71.0334	-39.6706	256.291	-71.9561	-62.6485	265.294	-70.9201	-79.5016	254.876	-52.7255	-2.1254	249.751	-53.2175	24.8516	255.916	-21.3091	8.09289	
